<?xml version="1.0" encoding="UTF-8"?><svg id="_이어_1" xmlns="http://www.w3.org/2000/svg" viewBox="0 0 1003.08 99.76"><g><path d="M7.61,63.66c0-18.87,10.91-30.68,28.64-30.68,12.39,0,19.77,5.68,23.64,14.09l-11.25,6.14c-2.05-5-5.8-8.41-12.39-8.41-8.52,0-13.41,5.46-13.41,13.98v9.77c0,8.41,4.77,13.98,13.64,13.98,6.93,0,10.8-3.52,13.41-8.75l10.91,6.48c-3.98,8.3-11.82,14.09-24.43,14.09-17.96,0-28.75-11.82-28.75-30.69Z"/><path d="M66.71,63.66c0-18.87,10.91-30.68,28.64-30.68s28.64,11.82,28.64,30.68-10.91,30.69-28.64,30.69-28.64-11.82-28.64-30.69Zm42.16,4.55v-9.09c0-9.77-5.23-15-13.52-15s-13.52,5.23-13.52,15v9.09c0,9.77,5.23,15,13.52,15s13.52-5.23,13.52-15Z"/><path d="M172.85,82.64h-.8c-3.18,7.05-8.52,11.71-17.5,11.71-13.41,0-22.39-10-22.39-30.69s8.98-30.68,22.39-30.68c8.98,0,14.32,4.66,17.5,11.71h.8V8.89h14.55V92.99h-14.55v-10.34Zm0-9.77v-18.41c0-6.71-5.57-9.89-12.16-9.89-8.41,0-13.3,5.57-13.3,14.43v9.32c0,8.86,4.89,14.43,13.3,14.43,6.59,0,12.16-3.18,12.16-9.89Z"/><path d="M196.83,63.78c0-18.98,10.91-30.8,28.07-30.8s27.62,11.71,27.62,29.43v4.77h-41.14v1.48c0,8.41,5.57,14.21,15.12,14.21,7.16,0,12.39-3.18,15.91-8.07l8.3,8.3c-4.21,6.14-12.27,11.25-24.66,11.25-18.75,0-29.21-11.82-29.21-30.57Zm14.55-6.02v.8h26.59v-1.02c0-8.41-5-13.87-12.96-13.87s-13.64,5.68-13.64,14.09Z"/><path d="M260.7,81.51h19.32V45.82h-19.32v-11.48h33.87v47.16h17.96v11.48h-51.82v-11.48Zm17.27-63.64v-2.73c0-4.09,2.5-7.39,9.32-7.39s9.32,3.3,9.32,7.39v2.73c0,4.09-2.5,7.39-9.32,7.39s-9.32-3.3-9.32-7.39Z"/><path d="M314.68,83.21l8.52-7.73c4.77,5.23,11.02,8.3,19.32,8.3,7.27,0,12.05-2.39,12.05-7.39,0-4.2-3.3-5.34-8.07-6.02l-9.43-1.48c-9.77-1.48-19.09-5.34-19.09-16.93,0-12.16,9.89-18.98,25.8-18.98,11.25,0,19.21,3.41,24.32,9.09l-7.61,8.41c-3.3-3.64-8.75-6.93-17.16-6.93-7.27,0-11.14,2.39-11.14,6.93,0,4.2,3.41,5.46,8.18,6.14l9.32,1.48c9.89,1.48,19.21,5.23,19.21,16.82s-9.89,19.43-26.48,19.43c-12.84,0-22.5-4.32-27.73-11.14Z"/><path d="M378.32,92.99V34.34h14.55v10.34h.57c2.61-6.36,7.61-11.71,17.16-11.71,11.48,0,19.43,7.96,19.43,22.16v37.84h-14.55V57.19c0-8.41-3.75-12.73-11.02-12.73-5.91,0-11.59,3.07-11.59,9.32v39.21h-14.55Z"/><path d="M439.58,63.78c0-18.98,10.91-30.8,28.07-30.8s27.62,11.71,27.62,29.43v4.77h-41.14v1.48c0,8.41,5.57,14.21,15.12,14.21,7.16,0,12.39-3.18,15.91-8.07l8.3,8.3c-4.21,6.14-12.27,11.25-24.66,11.25-18.75,0-29.21-11.82-29.21-30.57Zm14.55-6.02v.8h26.59v-1.02c0-8.41-5-13.87-12.96-13.87s-13.64,5.68-13.64,14.09Z"/><path d="M519.92,92.99l-21.03-58.64h15.23l7.84,24.89,6.59,21.59h.8l6.59-21.59,7.84-24.89h14.66l-21.03,58.64h-17.5Z"/><path d="M562.09,63.78c0-18.98,10.91-30.8,28.07-30.8s27.62,11.71,27.62,29.43v4.77h-41.14v1.48c0,8.41,5.57,14.21,15.11,14.21,7.16,0,12.39-3.18,15.91-8.07l8.3,8.3c-4.21,6.14-12.27,11.25-24.66,11.25-18.75,0-29.21-11.82-29.21-30.57Zm14.55-6.02v.8h26.59v-1.02c0-8.41-5-13.87-12.96-13.87s-13.64,5.68-13.64,14.09Z"/><path d="M625.61,81.51h14.55V45.82h-14.55v-11.48h29.09v16.02h.91c2.16-8.3,7.16-16.02,18.87-16.02h6.36v13.64h-12.05c-9.21,0-14.09,6.25-14.09,13.75v19.77h15.68v11.48h-44.78v-11.48Z"/><path d="M720.96,92.99c-11.14,0-16.37-6.59-16.37-15.91v-31.25h-17.05v-11.48h11.59c4.66,0,6.48-1.59,6.48-6.48V13.66h13.52v20.68h23.87v11.48h-23.87v35.69h23.87v11.48h-22.05Z"/><path d="M754.94,8.89h14.55V44.69h.57c2.61-6.36,7.61-11.71,17.16-11.71,11.48,0,19.43,7.96,19.43,22.16v37.84h-14.55V57.19c0-8.41-3.75-12.73-11.02-12.73-5.91,0-11.59,3.07-11.59,9.32v39.21h-14.55V8.89Z"/><path d="M865.63,92.99c-7.05,0-11.02-3.86-11.71-10.11h-.57c-2.16,7.27-8.64,11.48-17.73,11.48-11.71,0-19.32-6.59-19.32-17.62,0-11.82,8.75-17.73,26.03-17.73h10.34v-3.86c0-7.39-3.52-11.25-11.59-11.25-7.39,0-11.59,3.18-14.77,7.73l-8.3-7.05c3.64-6.48,11.82-11.59,24.55-11.59,15.34,0,24.66,7.39,24.66,21.48v27.62h6.93v10.91h-8.52Zm-12.96-17.73v-7.84h-10c-7.96,0-11.93,2.61-11.93,7.5v2.27c0,4.66,3.75,7.16,9.77,7.16,6.93,0,12.16-3.52,12.16-9.09Z"/><path d="M907,92.99c-11.14,0-16.37-6.59-16.37-15.91v-31.25h-17.05v-11.48h11.59c4.66,0,6.48-1.59,6.48-6.48V13.66h13.52v20.68h23.87v11.48h-23.87v35.69h23.87v11.48h-22.05Z"/></g><g><path d="M966.86,76.52h-7.73V40.05h14.11c7.16,0,11.18,4.55,11.18,11.6,0,5.12-2.35,9.15-6.43,10.3l7.16,14.58h-8.57l-6.11-13.54h-3.61v13.54Zm4.5-19.6c3.66,0,4.91-1.31,4.91-4.49v-1.57c0-3.19-1.25-4.49-4.91-4.49h-4.5v10.56h4.5Z"/><path d="M970.94,90.67c-17.72,0-32.14-14.42-32.14-32.14s14.42-32.14,32.14-32.14,32.14,14.42,32.14,32.14-14.42,32.14-32.14,32.14Zm0-57.77c-14.13,0-25.63,11.5-25.63,25.63s11.5,25.63,25.63,25.63,25.63-11.5,25.63-25.63-11.5-25.63-25.63-25.63Z"/></g></svg>